<svg width="198" height="115" viewBox="0 0 198 115" fill="none" xmlns="http://www.w3.org/2000/svg">
<path d="M59.5468 20C61.7326 20 62.4612 20.071 63.8143 21.8276C65.2714 23.4808 66 24.824 66 25.8572C66 26.8905 65.7398 27.6654 65.2194 28.182C64.4908 28.9053 61.056 30.4035 54.9151 32.6767C48.8783 34.9498 40.0833 38.8761 28.53 44.4557C16.9768 50.0352 11.2002 53.9099 11.2002 56.0797C11.2002 57.8362 14.9472 60.7293 22.4412 64.759C29.9351 68.7887 37.4291 72.7667 44.9231 76.693C52.5212 80.6194 56.3203 83.3575 56.3203 84.9073C56.3203 87.0772 53.6401 86.9996 49.789 86.9996C46.042 86.9996 46.9007 86.3539 37.8455 82.7375C28.8943 79.0178 20.5156 74.6782 12.7094 69.7186C4.90312 64.759 1 60.8327 1 57.9396C1 56.2864 1.57246 54.2199 2.71737 51.7401C3.86229 49.157 5.05925 47.3488 6.30825 46.3155C11.6165 41.8726 21.4003 36.2414 35.6597 29.4219C50.0232 22.6025 54.3427 20 59.5468 20Z" fill="white"/>
<path d="M143.955 25.6729C143.955 24.0194 145.748 24 148.121 24C155.137 24.1033 158.155 26.0346 168.06 31.4085C177.964 36.7825 185.96 42.4664 192.048 48.4604C195.349 51.7674 197 54.8161 197 57.6064C197 61.5335 188.901 67.9409 172.702 76.8285C171.464 77.5519 170.484 78.1203 169.762 78.5337C153.357 87.8347 142.511 92.6273 136.836 92.6273C133.741 92.6273 132 93.874 132 91.8071C132 89.6368 140.963 83.701 149.217 78.8438C157.574 73.8832 165.88 69.181 174.134 64.7372C182.491 60.19 186.67 57.3481 186.67 56.2113C186.67 54.041 182.491 50.579 174.134 45.8251C165.777 41.0713 158.916 37.9192 153.551 36.3691C151.59 35.749 149.475 34.1472 147.205 31.5635C145.039 28.8766 143.955 26.913 143.955 25.6729Z" fill="white"/>
<path d="M101.829 75.6088L97.9523 73.6336C99.4349 70.7422 100.87 67.925 102.322 65.1164C112.813 44.817 123.307 24.5186 133.803 4.22116C134.017 3.80611 134.224 3.38604 134.463 2.98437C134.903 2.16124 135.654 1.5426 136.554 1.26326C137.453 0.983925 138.428 1.06653 139.265 1.49308C140.102 1.91964 138.249 1.42829 138.538 2.31322C138.827 3.19814 138.75 4.16034 138.323 4.99013C136.572 8.50255 134.739 11.9744 132.937 15.4615C123.733 33.2704 114.529 51.0791 105.323 68.8875C104.19 71.0814 103.045 73.2703 101.829 75.6088Z" fill="white"/>
<path d="M76.1185 112.532C78.104 110.173 86.1542 107.522 88.3658 101.399C78.902 106.966 76.1185 107.522 71.1083 109.159C67.8206 106.987 69.069 108.03 66.1648 105.367C71.4123 103.914 84.7385 98.3822 88.9225 94.8975C83.9304 97.6888 68.4082 101.069 62.7579 101.955C60.564 99.2471 60.1806 97.8752 58.3694 94.8975C70.1216 97.4405 82.4777 92.1391 89.8309 83.631C91.903 84.6878 94.5589 85.9661 96.7223 86.9207C97.3607 87.2016 97.9359 87.6081 98.414 88.116C98.892 88.6238 99.263 89.2226 99.5048 89.8767C97.8296 101.955 97.2729 103.069 93.2323 109.159C91.3632 111.976 89.943 113.591 86.1542 113.591C80.4741 113.591 79.0587 113.591 76.1185 112.532Z" fill="white"/>
<path d="M98.9226 86.909L90.3766 82.5524C91.1651 81.0193 91.8771 79.5171 92.7017 78.0786C92.7946 77.8964 92.9234 77.735 93.0805 77.6041C93.2375 77.4732 93.4194 77.3755 93.6153 77.3169C93.8112 77.2584 94.0169 77.2401 94.22 77.2633C94.4231 77.2865 94.6194 77.3507 94.797 77.452C96.7003 78.375 98.585 79.3358 100.451 80.3344C100.637 80.4201 100.804 80.5423 100.941 80.6938C101.079 80.8453 101.184 81.023 101.251 81.2161C101.319 81.4093 101.346 81.6141 101.333 81.8182C101.319 82.0223 101.265 82.2216 101.172 82.4042C100.493 83.9165 99.6968 85.3766 98.9226 86.909Z" fill="white"/>
<path d="M63.8143 21.8276L63.022 22.4378L63.0422 22.464L63.0641 22.4888L63.8143 21.8276ZM65.2194 28.182L65.9239 28.8917L65.9239 28.8917L65.2194 28.182ZM54.9151 32.6767L54.568 31.7388L54.5627 31.7408L54.9151 32.6767ZM28.53 44.4557L28.9649 45.3562L28.9649 45.3562L28.53 44.4557ZM22.4412 64.759L22.9147 63.8783L22.9147 63.8783L22.4412 64.759ZM44.9231 76.693L44.459 77.5788L44.4641 77.5814L44.9231 76.693ZM37.8455 82.7375L37.4617 83.661L37.4746 83.6662L37.8455 82.7375ZM2.71737 51.7401L3.62528 52.1593L3.62849 52.1523L3.6316 52.1453L2.71737 51.7401ZM6.30825 46.3155L6.94568 47.0861L6.95009 47.0824L6.30825 46.3155ZM35.6597 29.4219L35.2308 28.5186L35.2283 28.5198L35.6597 29.4219ZM148.121 24L148.136 23.0001L148.128 23H148.121V24ZM168.06 31.4085L167.583 32.2875L167.583 32.2875L168.06 31.4085ZM192.048 48.4604L192.755 47.7539L192.749 47.7479L192.048 48.4604ZM172.702 76.8285L172.221 75.9518L172.21 75.9583L172.198 75.9651L172.702 76.8285ZM169.762 78.5337L170.255 79.4036L170.259 79.4016L169.762 78.5337ZM149.217 78.8438L149.724 79.7056L149.728 79.7037L149.217 78.8438ZM174.134 64.7372L174.608 65.6177L174.612 65.6156L174.134 64.7372ZM174.134 45.8251L174.628 44.9559L174.628 44.9559L174.134 45.8251ZM153.551 36.3691L153.249 37.3225L153.261 37.3263L153.273 37.3298L153.551 36.3691ZM147.205 31.5635L146.427 32.1913L146.44 32.2077L146.454 32.2236L147.205 31.5635ZM101.829 75.6088L101.375 76.4998L102.258 76.95L102.716 76.0703L101.829 75.6088ZM97.9523 73.6336L97.0625 73.1773L96.605 74.0694L97.4983 74.5246L97.9523 73.6336ZM102.322 65.1164L101.433 64.6573L101.433 64.6573L102.322 65.1164ZM133.803 4.22116L134.691 4.68048L134.691 4.68034L133.803 4.22116ZM134.463 2.98437L135.323 3.49441L135.334 3.47534L135.344 3.45579L134.463 2.98437ZM138.323 4.99013L137.434 4.5326L137.428 4.54395L138.323 4.99013ZM132.937 15.4615L132.049 15.0024L132.049 15.0024L132.937 15.4615ZM105.323 68.8875L104.435 68.4283L104.434 68.4286L105.323 68.8875ZM76.1185 112.532L75.3534 111.888C75.1428 112.139 75.0678 112.476 75.1528 112.792C75.2379 113.108 75.472 113.363 75.7798 113.473L76.1185 112.532ZM88.3658 101.399L89.3063 101.738C89.4495 101.342 89.3288 100.898 89.0045 100.629C88.6802 100.36 88.222 100.323 87.8588 100.537L88.3658 101.399ZM71.1083 109.159L70.5571 109.993C70.8116 110.161 71.1288 110.204 71.4187 110.109L71.1083 109.159ZM66.1648 105.367L65.8979 104.404C65.5476 104.501 65.2775 104.78 65.1925 105.134C65.1075 105.487 65.221 105.859 65.489 106.104L66.1648 105.367ZM88.9225 94.8975L89.5624 95.6659C89.9594 95.3353 90.0392 94.7568 89.7466 94.3311C89.454 93.9053 88.8853 93.7725 88.4344 94.0247L88.9225 94.8975ZM62.7579 101.955L61.9808 102.585C62.2053 102.862 62.5605 102.998 62.9128 102.943L62.7579 101.955ZM58.3694 94.8975L58.5809 93.9201C58.1901 93.8355 57.7866 93.9918 57.5548 94.3175C57.3229 94.6432 57.3073 95.0756 57.515 95.4172L58.3694 94.8975ZM89.8309 83.631L90.2853 82.7401C89.8752 82.531 89.3753 82.6288 89.0743 82.9771L89.8309 83.631ZM96.7223 86.9207L96.3186 87.8356L96.3195 87.836L96.7223 86.9207ZM99.5048 89.8767L100.495 90.0141C100.518 89.8509 100.5 89.6845 100.443 89.5299L99.5048 89.8767ZM93.2323 109.159L94.0656 109.712L94.0656 109.712L93.2323 109.159ZM86.1542 113.591L86.1542 112.591L86.1542 113.591ZM98.9226 86.909L98.4685 87.7999L99.3626 88.2557L99.8152 87.3599L98.9226 86.909ZM90.3766 82.5524L89.4873 82.0951L89.0284 82.9875L89.9224 83.4433L90.3766 82.5524ZM92.7017 78.0786L93.5693 78.5759L93.5815 78.5546L93.5926 78.5328L92.7017 78.0786ZM94.797 77.452L94.3018 78.3207L94.3307 78.3372L94.3607 78.3517L94.797 77.452ZM100.451 80.3344L99.9794 81.2162L100.006 81.2301L100.033 81.2426L100.451 80.3344ZM101.172 82.4042L100.28 81.9527L100.269 81.9735L100.26 81.9946L101.172 82.4042ZM59.5468 20V21C60.6819 21 61.2161 21.0297 61.6376 21.1899C62.0048 21.3294 62.3863 21.6126 63.022 22.4378L63.8143 21.8276L64.6065 21.2173C63.8891 20.286 63.2298 19.6554 62.348 19.3203C61.5205 19.0058 60.5975 19 59.5468 19V20ZM63.8143 21.8276L63.0641 22.4888C63.7627 23.2814 64.258 23.9682 64.5745 24.5517C64.8947 25.1418 65 25.568 65 25.8572H66H67C67 25.1132 66.7411 24.3512 66.3326 23.5981C65.9205 22.8384 65.3229 22.0269 64.5644 21.1663L63.8143 21.8276ZM66 25.8572H65C65 26.7345 64.78 27.2091 64.5149 27.4723L65.2194 28.182L65.9239 28.8917C66.6996 28.1217 67 27.0465 67 25.8572H66ZM65.2194 28.182L64.5149 27.4723C64.4461 27.5406 64.2114 27.7119 63.6948 27.9875C63.2069 28.2478 62.5439 28.5622 61.6971 28.9315C60.0052 29.6695 57.6317 30.6048 54.568 31.7389L54.9151 32.6767L55.2623 33.6145C58.3395 32.4754 60.7538 31.525 62.4967 30.7647C63.3673 30.385 64.0833 30.0471 64.6363 29.7521C65.1605 29.4723 65.6283 29.1851 65.9239 28.8917L65.2194 28.182ZM54.9151 32.6767L54.5627 31.7408C48.4824 34.0303 39.6545 37.9727 28.0951 43.5552L28.53 44.4557L28.9649 45.3562C40.512 39.7796 49.2742 35.8693 55.2675 33.6125L54.9151 32.6767ZM28.53 44.4557L28.0951 43.5552C22.3052 46.3514 17.9227 48.7391 14.9756 50.7159C13.5053 51.7021 12.3545 52.6108 11.5603 53.4418C10.8052 54.232 10.2002 55.1275 10.2002 56.0797H11.2002H12.2002C12.2002 55.947 12.3172 55.5445 13.0062 54.8236C13.6562 54.1435 14.6717 53.3279 16.0897 52.3768C18.9192 50.479 23.2016 48.1395 28.9649 45.3562L28.53 44.4557ZM11.2002 56.0797H10.2002C10.2002 56.8592 10.6037 57.592 11.1241 58.2377C11.6616 58.9047 12.4321 59.6117 13.3993 60.3585C15.3374 61.8549 18.2039 63.616 21.9676 65.6397L22.4412 64.759L22.9147 63.8783C19.1844 61.8724 16.4304 60.1721 14.6216 58.7754C13.7153 58.0757 13.0806 57.4781 12.6814 56.9827C12.265 56.4661 12.2002 56.1785 12.2002 56.0797H11.2002ZM22.4412 64.759L21.9676 65.6397C29.4647 69.6711 36.9619 73.6508 44.459 77.5788L44.9231 76.693L45.3872 75.8072C37.8964 71.8826 30.4056 67.9062 22.9147 63.8783L22.4412 64.759ZM44.9231 76.693L44.4641 77.5814C48.2488 79.5372 51.0467 81.1767 52.8863 82.5026C53.8088 83.1675 54.4545 83.7282 54.8594 84.1853C55.0608 84.4126 55.1836 84.5931 55.2529 84.7277C55.3225 84.8631 55.3203 84.9174 55.3203 84.9073H56.3203H57.3203C57.3203 84.1392 56.8715 83.4403 56.3564 82.859C55.8116 82.2441 55.0327 81.5843 54.0557 80.8801C52.0962 79.4679 49.1956 77.7752 45.3822 75.8046L44.9231 76.693ZM56.3203 84.9073H55.3203C55.3203 85.2207 55.2347 85.3461 55.1501 85.427C55.0292 85.5426 54.78 85.682 54.2851 85.7903C53.2676 86.0128 51.776 85.9996 49.789 85.9996V86.9996V87.9996C51.6531 87.9996 53.4271 88.0252 54.7125 87.7441C55.369 87.6005 56.0305 87.3524 56.5325 86.8723C57.0708 86.3575 57.3203 85.6789 57.3203 84.9073H56.3203ZM49.789 86.9996V85.9996C48.8745 85.9996 48.3025 85.9594 47.8107 85.8615C47.3269 85.7652 46.8766 85.6043 46.2127 85.3103C44.8772 84.719 42.7635 83.6248 38.2164 81.8088L37.8455 82.7375L37.4746 83.6662C41.9827 85.4666 43.9673 86.5034 45.403 87.1391C46.1247 87.4586 46.7283 87.6852 47.4202 87.823C48.1043 87.9592 48.8301 87.9996 49.789 87.9996V86.9996ZM37.8455 82.7375L38.2292 81.8141C29.3285 78.1154 21.0011 73.8019 13.2456 68.8745L12.7094 69.7186L12.1731 70.5627C20.0301 75.5545 28.4601 79.9203 37.4617 83.661L37.8455 82.7375ZM12.7094 69.7186L13.2456 68.8745C9.36942 66.4118 6.51262 64.2364 4.63654 62.3491C2.72044 60.4216 2 58.9658 2 57.9396H1H0C0 59.8064 1.23112 61.7603 3.21814 63.7592C5.24519 65.7983 8.24307 68.0658 12.1731 70.5627L12.7094 69.7186ZM1 57.9396H2C2 56.4957 2.50637 54.5827 3.62528 52.1593L2.71737 51.7401L1.80947 51.3209C0.638543 53.857 0 56.077 0 57.9396H1ZM2.71737 51.7401L3.6316 52.1453C4.75388 49.6132 5.87406 47.9725 6.94567 47.086L6.30825 46.3155L5.67083 45.545C4.24444 46.725 2.9707 48.7007 1.80315 51.3349L2.71737 51.7401ZM6.30825 46.3155L6.95009 47.0824C12.1533 42.7273 21.836 37.1415 36.0912 30.3241L35.6597 29.4219L35.2283 28.5198C20.9647 35.3412 11.0797 41.0178 5.66641 45.5487L6.30825 46.3155ZM35.6597 29.4219L36.0886 30.3253C43.3054 26.8989 47.9285 24.5663 51.4302 23.0736C54.9031 21.5931 57.1398 21 59.5468 21V20V19C56.7497 19 54.2246 19.7082 50.6459 21.2338C47.0959 22.7471 42.3775 25.1255 35.2308 28.5186L35.6597 29.4219ZM143.955 25.6729H144.955C144.955 25.4517 145.01 25.3902 145.025 25.3726C145.057 25.3359 145.154 25.2544 145.422 25.1783C146.002 25.0135 146.881 25 148.121 25V24V23C146.988 23 145.784 22.9962 144.875 23.2544C144.398 23.3899 143.898 23.6232 143.52 24.0553C143.125 24.5064 142.955 25.0673 142.955 25.6729H143.955ZM148.121 24L148.106 24.9999C154.829 25.0989 157.621 26.8828 167.583 32.2875L168.06 31.4085L168.536 30.5296C158.688 25.1864 155.444 23.1078 148.136 23.0001L148.121 24ZM168.06 31.4085L167.583 32.2875C177.43 37.6301 185.343 43.2618 191.346 49.173L192.048 48.4604L192.749 47.7479C186.578 41.6711 178.499 35.9348 168.536 30.5296L168.06 31.4085ZM192.048 48.4604L191.34 49.1669C194.573 52.4058 196 55.212 196 57.6064H197H198C198 54.4202 196.125 51.1291 192.755 47.7539L192.048 48.4604ZM197 57.6064H196C196 58.2579 195.653 59.1761 194.694 60.3999C193.75 61.6047 192.299 62.9957 190.305 64.573C186.321 67.7251 180.303 71.5174 172.221 75.9518L172.702 76.8285L173.183 77.7052C181.3 73.252 187.431 69.3968 191.546 66.1415C193.602 64.5152 195.188 63.0125 196.268 61.6336C197.334 60.2738 198 58.9185 198 57.6064H197ZM172.702 76.8285L172.198 75.9651C170.961 76.6879 169.984 77.2546 169.265 77.6658L169.762 78.5337L170.259 79.4016C170.985 78.9861 171.968 78.416 173.207 77.692L172.702 76.8285ZM169.762 78.5337L169.269 77.6638C161.079 82.3069 154.302 85.8102 148.879 88.1502C143.421 90.5055 139.453 91.6273 136.836 91.6273V92.6273V93.6273C139.894 93.6273 144.187 92.3529 149.671 89.9866C155.191 87.605 162.04 84.0616 170.255 79.4036L169.762 78.5337ZM136.836 92.6273V91.6273C135.996 91.6273 135.255 91.7121 134.635 91.7997C133.977 91.8927 133.554 91.971 133.193 91.9944C132.809 92.0192 132.847 91.9456 132.955 92.0344C133.098 92.1518 133 92.2326 133 91.8071H132H131C131 92.415 131.12 93.115 131.686 93.58C132.217 94.0164 132.883 94.0186 133.322 93.9902C133.783 93.9603 134.376 93.8561 134.915 93.78C135.492 93.6984 136.129 93.6273 136.836 93.6273V92.6273ZM132 91.8071H133C133 91.8457 132.997 91.7244 133.225 91.3932C133.433 91.0902 133.764 90.7134 134.225 90.2678C135.143 89.3792 136.477 88.3145 138.099 87.1438C141.335 84.8077 145.609 82.1274 149.724 79.7056L149.217 78.8438L148.71 77.9819C144.572 80.4173 140.237 83.1335 136.928 85.5222C135.277 86.714 133.854 87.8437 132.834 88.8303C132.326 89.3222 131.891 89.8031 131.578 90.2592C131.283 90.6869 131 91.2258 131 91.8071H132ZM149.217 78.8438L149.728 79.7037C158.073 74.75 166.367 70.0547 174.608 65.6177L174.134 64.7372L173.66 63.8567C165.393 68.3074 157.076 73.0164 148.707 77.9838L149.217 78.8438ZM174.134 64.7372L174.612 65.6156C178.799 63.3374 181.967 61.4714 184.098 60.0222C185.16 59.3002 185.995 58.6606 186.576 58.1078C186.865 57.8322 187.118 57.5531 187.305 57.2731C187.481 57.0103 187.67 56.6423 187.67 56.2113H186.67H185.67C185.67 56.0645 185.728 56.0339 185.642 56.1618C185.568 56.2727 185.429 56.4376 185.197 56.6594C184.733 57.1012 184.001 57.6695 182.973 58.3685C180.925 59.7613 177.826 61.5898 173.656 63.8588L174.134 64.7372ZM186.67 56.2113H187.67C187.67 55.358 187.267 54.5242 186.689 53.7455C186.101 52.952 185.25 52.1091 184.174 51.217C182.018 49.4309 178.825 47.3433 174.628 44.9559L174.134 45.8251L173.639 46.6943C177.8 49.0608 180.875 51.0812 182.898 52.7571C183.91 53.596 184.627 54.3227 185.083 54.9372C185.55 55.5666 185.67 55.9794 185.67 56.2113H186.67ZM174.134 45.8251L174.628 44.9559C166.244 40.1867 159.304 36.9906 153.828 35.4084L153.551 36.3691L153.273 37.3298C158.527 38.8479 165.309 41.9558 173.639 46.6943L174.134 45.8251ZM153.551 36.3691L153.852 35.4156C152.146 34.8761 150.178 33.4321 147.957 30.9035L147.205 31.5635L146.454 32.2236C148.772 34.8622 151.034 36.6219 153.249 37.3225L153.551 36.3691ZM147.205 31.5635L147.984 30.9358C146.92 29.6163 146.146 28.504 145.643 27.5926C145.127 26.6568 144.955 26.0369 144.955 25.6729H143.955H142.955C142.955 26.5491 143.325 27.531 143.892 28.5587C144.473 29.6109 145.324 30.8239 146.427 32.1913L147.205 31.5635ZM101.829 75.6088L102.283 74.7178L98.4063 72.7426L97.9523 73.6336L97.4983 74.5246L101.375 76.4998L101.829 75.6088ZM97.9523 73.6336L98.8421 74.0899C100.326 71.1952 101.759 68.3824 103.21 65.5756L102.322 65.1164L101.433 64.6573C99.9806 67.4677 98.5434 70.2893 97.0625 73.1773L97.9523 73.6336ZM102.322 65.1164L103.21 65.5756C113.702 45.2762 124.195 24.9778 134.691 4.68048L133.803 4.22116L132.914 3.76183C122.419 24.0593 111.925 44.3578 101.433 64.6573L102.322 65.1164ZM133.803 4.22116L134.691 4.68034C134.918 4.24216 135.104 3.86321 135.323 3.49441L134.463 2.98437L133.602 2.47433C133.345 2.90887 133.117 3.37007 132.914 3.76198L133.803 4.22116ZM134.463 2.98437L135.344 3.45579C135.659 2.8669 136.199 2.42043 136.85 2.21827L136.554 1.26326L136.257 0.308253C135.109 0.664769 134.146 1.45557 133.581 2.51295L134.463 2.98437ZM136.554 1.26326L136.85 2.21827C137.501 2.01603 138.207 2.07623 138.811 2.38406L139.265 1.49308L139.719 0.602107C138.649 0.056835 137.405 -0.048184 136.257 0.308253L136.554 1.26326ZM139.265 1.49308L138.811 2.38406C138.829 2.39345 138.843 2.40076 138.853 2.40617C138.863 2.41169 138.867 2.41417 138.866 2.41384C138.866 2.41379 138.857 2.40835 138.843 2.39773C138.829 2.38799 138.801 2.36623 138.766 2.33238C138.734 2.30132 138.673 2.23736 138.615 2.13975C138.558 2.04105 138.481 1.8687 138.484 1.64142C138.489 1.10389 138.885 0.852902 138.989 0.796687C139.108 0.732433 139.206 0.714929 139.206 0.714781C139.224 0.711117 139.229 0.711219 139.206 0.713981C139.185 0.716583 139.16 0.719076 139.118 0.723513C139.08 0.72752 139.032 0.732704 138.981 0.739293C138.88 0.752104 138.742 0.773095 138.597 0.813097C138.456 0.851722 138.26 0.920916 138.069 1.05597C137.866 1.20035 137.66 1.4285 137.562 1.75723C137.468 2.07591 137.508 2.37935 137.588 2.62352L138.538 2.31322L139.489 2.00291C139.496 2.02585 139.531 2.15107 139.48 2.32558C139.425 2.51013 139.31 2.62815 139.226 2.68748C139.156 2.7375 139.108 2.74673 139.127 2.74152C139.141 2.73769 139.173 2.73097 139.234 2.72323C139.262 2.71954 139.293 2.71624 139.329 2.71244C139.361 2.70906 139.406 2.70441 139.447 2.69942C139.487 2.69459 139.547 2.68664 139.611 2.67337C139.659 2.66361 139.794 2.63492 139.939 2.55679C140.068 2.4867 140.478 2.21915 140.484 1.66124C140.486 1.42378 140.406 1.24029 140.341 1.12936C140.277 1.01951 140.205 0.942229 140.158 0.896609C140.066 0.807652 139.972 0.746174 139.916 0.711893C139.852 0.672346 139.784 0.635621 139.719 0.602107L139.265 1.49308ZM138.538 2.31322L137.588 2.62352C137.793 3.25388 137.739 3.93966 137.434 4.53263L138.323 4.99013L139.212 5.44763C139.761 4.38102 139.861 3.14239 139.489 2.00291L138.538 2.31322ZM138.323 4.99013L137.428 4.54395C135.681 8.04774 133.856 11.505 132.049 15.0024L132.937 15.4615L133.825 15.9206C135.622 12.4439 137.462 8.95735 139.218 5.43631L138.323 4.99013ZM132.937 15.4615L132.049 15.0024C122.845 32.8113 113.64 50.6199 104.435 68.4283L105.323 68.8875L106.211 69.3467C115.417 51.5383 124.622 33.7296 133.825 15.9206L132.937 15.4615ZM105.323 68.8875L104.434 68.4286C103.302 70.6208 102.159 72.8063 100.941 75.1473L101.829 75.6088L102.716 76.0703C103.931 73.7342 105.077 71.5421 106.211 69.3465L105.323 68.8875ZM76.1185 112.532L76.8836 113.176C77.2645 112.724 78.0053 112.192 79.0934 111.504C80.1253 110.851 81.4345 110.077 82.7192 109.205C85.293 107.456 88.0878 105.112 89.3063 101.738L88.3658 101.399L87.4252 101.059C86.4322 103.808 84.0961 105.852 81.5955 107.55C80.3431 108.401 79.1292 109.115 78.0241 109.814C76.9753 110.477 75.9652 111.162 75.3534 111.888L76.1185 112.532ZM88.3658 101.399L87.8588 100.537C83.1499 103.307 80.1313 104.813 77.6836 105.829C75.226 106.849 73.3409 107.377 70.7978 108.208L71.1083 109.159L71.4187 110.109C73.8859 109.303 75.8976 108.735 78.4502 107.676C81.0128 106.613 84.1179 105.058 88.8728 102.261L88.3658 101.399ZM71.1083 109.159L71.6594 108.324C69.944 107.191 69.5265 106.97 69.0895 106.645C68.6822 106.342 68.332 105.998 66.8406 104.63L66.1648 105.367L65.489 106.104C66.9018 107.4 67.3795 107.866 67.896 108.25C68.3827 108.612 68.9848 108.955 70.5571 109.993L71.1083 109.159ZM66.1648 105.367L66.4317 106.331C69.1234 105.586 73.8176 103.817 78.3479 101.808C82.848 99.8127 87.349 97.5094 89.5624 95.6659L88.9225 94.8975L88.2825 94.1291C86.312 95.7703 82.0579 97.9753 77.5371 99.9801C73.0464 101.972 68.4537 103.696 65.8979 104.404L66.1648 105.367ZM88.9225 94.8975L88.4344 94.0247C86.0737 95.3447 81.0767 96.8605 75.8441 98.1706C70.6555 99.4698 65.3922 100.53 62.6029 100.967L62.7579 101.955L62.9128 102.943C65.7738 102.494 71.0968 101.421 76.3299 100.111C81.519 98.8115 86.7792 97.2416 89.4105 95.7703L88.9225 94.8975ZM62.7579 101.955L63.5349 101.326C61.3914 98.6797 61.1301 97.5119 59.2237 94.3778L58.3694 94.8975L57.515 95.4172C59.2311 98.2384 59.7367 99.8144 61.9808 102.585L62.7579 101.955ZM58.3694 94.8975L58.1579 95.8749C70.3248 98.5076 83.0359 93.0226 90.5875 84.2849L89.8309 83.631L89.0743 82.9771C81.9195 91.2557 69.9183 96.3734 58.5809 93.9201L58.3694 94.8975ZM89.8309 83.631L89.3766 84.5218C91.462 85.5854 94.135 86.8721 96.3186 87.8356L96.7223 86.9207L97.126 86.0058C94.9828 85.0602 92.3441 83.7902 90.2853 82.7401L89.8309 83.631ZM96.7223 86.9207L96.3195 87.836C96.8351 88.0629 97.2997 88.3912 97.6858 88.8014L98.414 88.116L99.1421 87.4306C98.5722 86.8251 97.8863 86.3404 97.1252 86.0054L96.7223 86.9207ZM98.414 88.116L97.6858 88.8014C98.0719 89.2115 98.3715 89.6952 98.5669 90.2235L99.5048 89.8767L100.443 89.5299C100.154 88.75 99.7121 88.036 99.1421 87.4306L98.414 88.116ZM99.5048 89.8767L98.5143 89.7394C97.6742 95.7968 97.1263 99 96.3073 101.446C95.5008 103.855 94.4233 105.555 92.399 108.606L93.2323 109.159L94.0656 109.712C96.0819 106.673 97.303 104.771 98.2038 102.081C99.0921 99.4279 99.6602 96.0352 100.495 90.0141L99.5048 89.8767ZM93.2323 109.159L92.399 108.606C91.4641 110.015 90.7294 110.979 89.8333 111.617C88.9782 112.225 87.8927 112.591 86.1542 112.591L86.1542 113.591L86.1542 114.591C88.2045 114.591 89.7235 114.149 90.993 113.246C92.2214 112.372 93.1314 111.12 94.0656 109.712L93.2323 109.159ZM86.1542 113.591L86.1542 112.591C80.4556 112.591 79.2099 112.582 76.4572 111.592L76.1185 112.532L75.7798 113.473C78.9074 114.599 80.4927 114.591 86.1542 114.591L86.1542 113.591ZM98.9226 86.909L99.3768 86.0181L90.8308 81.6615L90.3766 82.5524L89.9224 83.4433L98.4685 87.7999L98.9226 86.909ZM90.3766 82.5524L91.2659 83.0097C92.0744 81.4377 92.7595 79.9887 93.5693 78.5759L92.7017 78.0786L91.8341 77.5812C90.9948 79.0455 90.2557 80.6009 89.4873 82.0951L90.3766 82.5524ZM92.7017 78.0786L93.5926 78.5328C93.624 78.4712 93.6676 78.4165 93.7208 78.3722L93.0805 77.6041L92.4401 76.836C92.1792 77.0535 91.9652 77.3217 91.8109 77.6243L92.7017 78.0786ZM93.0805 77.6041L93.7208 78.3722C93.774 78.3279 93.8355 78.2948 93.9018 78.275L93.6153 77.3169L93.3288 76.3589C93.0033 76.4562 92.701 76.6185 92.4401 76.836L93.0805 77.6041ZM93.6153 77.3169L93.9018 78.275C93.9681 78.2552 94.0377 78.249 94.1065 78.2569L94.22 77.2633L94.3335 76.2698C93.996 76.2313 93.6542 76.2615 93.3288 76.3589L93.6153 77.3169ZM94.22 77.2633L94.1065 78.2569C94.1752 78.2647 94.2417 78.2865 94.3018 78.3207L94.797 77.452L95.2922 76.5832C94.9971 76.415 94.671 76.3084 94.3335 76.2698L94.22 77.2633ZM94.797 77.452L94.3607 78.3517C96.252 79.269 98.1249 80.2238 99.9794 81.2162L100.451 80.3344L100.923 79.4527C99.0452 78.4479 97.1486 77.481 95.2334 76.5522L94.797 77.452ZM100.451 80.3344L100.033 81.2426C100.096 81.2719 100.153 81.3139 100.201 81.3659L100.941 80.6938L101.682 80.0218C101.454 79.7708 101.178 79.5683 100.87 79.4263L100.451 80.3344ZM100.941 80.6938L100.201 81.3659C100.248 81.4179 100.284 81.4788 100.307 81.5451L101.251 81.2161L102.196 80.8872C102.084 80.5671 101.909 80.2728 101.682 80.0218L100.941 80.6938ZM101.251 81.2161L100.307 81.5451C100.33 81.6113 100.34 81.6816 100.335 81.7517L101.333 81.8182L102.331 81.8848C102.353 81.5466 102.307 81.2073 102.196 80.8872L101.251 81.2161ZM101.333 81.8182L100.335 81.7517C100.33 81.8217 100.312 81.8901 100.28 81.9527L101.172 82.4042L102.065 82.8556C102.218 82.5531 102.308 82.2229 102.331 81.8848L101.333 81.8182ZM101.172 82.4042L100.26 81.9946C99.5933 83.4795 98.8235 84.8876 98.0301 86.4581L98.9226 86.909L99.8152 87.3599C100.57 85.8656 101.393 84.3534 102.084 82.8137L101.172 82.4042Z" fill="white"/>
</svg>
